<svg width="60.000000" height="60.000000" viewBox="0 0 60 60" fill="none" xmlns="http://www.w3.org/2000/svg" xmlns:xlink="http://www.w3.org/1999/xlink">
	<desc>
			Created with Pixso.
	</desc>
	<defs>
		<clipPath id="clip14_57">
			<rect id="add" width="60.000000" height="60.000000" fill="white" fill-opacity="0"/>
		</clipPath>
	</defs>
	<g clip-path="url(#clip14_57)">
		<path id="path" d="M4.57 33.63L26.36 33.63L26.36 55.42C26.36 57.43 27.99 59.06 30 59.06C32 59.06 33.63 57.43 33.63 55.42L33.63 33.63L55.42 33.63C57.43 33.63 59.06 32 59.06 30C59.06 27.99 57.43 26.36 55.42 26.36L33.63 26.36L33.63 4.57C33.63 2.56 32 0.93 30 0.93C27.99 0.93 26.36 2.56 26.36 4.57L26.36 26.36L4.57 26.36C2.56 26.36 0.93 27.99 0.93 30C0.93 32 2.56 33.63 4.57 33.63Z" fill="#1A1927" fill-opacity="1.000000" fill-rule="nonzero"/>
	</g>
</svg>
