<svg width="65.000000" height="65.000000" viewBox="0 0 65 65" fill="none" xmlns="http://www.w3.org/2000/svg" xmlns:xlink="http://www.w3.org/1999/xlink">
	<desc>
			Created with Pixso.
	</desc>
	<defs>
		<clipPath id="clip14_59">
			<rect id="checkbox" width="65.000000" height="65.000000" fill="white" fill-opacity="0"/>
		</clipPath>
	</defs>
	<g clip-path="url(#clip14_59)">
		<path id="path" d="M50.78 6.09L14.21 6.09C13.68 6.09 13.15 6.14 12.63 6.25C12.11 6.35 11.6 6.51 11.11 6.71C10.61 6.91 10.15 7.16 9.7 7.46C9.26 7.76 8.85 8.09 8.47 8.47C8.09 8.85 7.76 9.26 7.46 9.7C7.16 10.15 6.91 10.61 6.71 11.11C6.51 11.6 6.35 12.11 6.25 12.63C6.14 13.15 6.09 13.68 6.09 14.21L6.09 50.78C6.09 51.31 6.14 51.84 6.25 52.36C6.35 52.88 6.51 53.39 6.71 53.88C6.91 54.38 7.16 54.84 7.46 55.29C7.76 55.73 8.09 56.14 8.47 56.52C8.85 56.9 9.26 57.23 9.7 57.53C10.15 57.83 10.61 58.08 11.11 58.28C11.6 58.48 12.11 58.64 12.63 58.74C13.15 58.85 13.68 58.9 14.21 58.9L50.78 58.9C51.31 58.9 51.84 58.85 52.36 58.74C52.88 58.64 53.39 58.48 53.88 58.28C54.38 58.08 54.84 57.83 55.29 57.53C55.73 57.23 56.14 56.9 56.52 56.52C56.9 56.14 57.23 55.73 57.53 55.29C57.83 54.84 58.08 54.38 58.28 53.88C58.48 53.39 58.64 52.88 58.74 52.36C58.85 51.84 58.9 51.31 58.9 50.78L58.9 14.21C58.9 13.68 58.85 13.15 58.74 12.63C58.64 12.11 58.48 11.6 58.28 11.11C58.08 10.61 57.83 10.15 57.53 9.7C57.23 9.26 56.9 8.85 56.52 8.47C56.14 8.09 55.73 7.76 55.29 7.46C54.84 7.16 54.38 6.91 53.88 6.71C53.39 6.51 52.88 6.35 52.36 6.25C51.84 6.14 51.31 6.09 50.78 6.09ZM46.24 23.65L29.18 43.96C28.99 44.18 28.76 44.36 28.49 44.49C28.23 44.61 27.95 44.68 27.65 44.68L27.62 44.68C27.33 44.68 27.05 44.62 26.79 44.51C26.53 44.39 26.3 44.22 26.11 44.01L18.8 35.88C18.7 35.79 18.62 35.68 18.55 35.56C18.48 35.45 18.42 35.33 18.37 35.2C18.32 35.08 18.29 34.95 18.27 34.81C18.25 34.68 18.24 34.54 18.24 34.41C18.25 34.27 18.27 34.14 18.3 34.01C18.33 33.88 18.38 33.75 18.44 33.63C18.49 33.5 18.56 33.39 18.64 33.28C18.72 33.17 18.81 33.07 18.91 32.98C19.02 32.89 19.12 32.81 19.24 32.74C19.36 32.67 19.48 32.62 19.61 32.57C19.73 32.53 19.87 32.5 20 32.48C20.13 32.46 20.27 32.46 20.4 32.46C20.54 32.47 20.67 32.49 20.8 32.53C20.93 32.57 21.06 32.61 21.18 32.67C21.3 32.73 21.42 32.81 21.52 32.89C21.63 32.97 21.73 33.07 21.81 33.17L27.56 39.56L43.13 21.03C43.3 20.83 43.51 20.67 43.75 20.55C43.98 20.43 44.24 20.36 44.5 20.34C44.77 20.32 45.03 20.35 45.28 20.43C45.54 20.51 45.77 20.63 45.97 20.81C46.17 20.98 46.34 21.18 46.46 21.42C46.59 21.65 46.66 21.91 46.69 22.17C46.71 22.44 46.68 22.7 46.61 22.95C46.53 23.21 46.41 23.44 46.24 23.65Z" fill="#A877FF" fill-opacity="1.000000" fill-rule="nonzero"/>
	</g>
</svg>
