<svg width="65.000000" height="65.000000" viewBox="0 0 65 65" fill="none" xmlns="http://www.w3.org/2000/svg" xmlns:xlink="http://www.w3.org/1999/xlink">
	<desc>
			Created with Pixso.
	</desc>
	<defs>
		<clipPath id="clip14_86">
			<rect id="login" width="65.000000" height="65.000000" fill="white" fill-opacity="0"/>
		</clipPath>
	</defs>
	<g clip-path="url(#clip14_86)">
		<path id="path" d="M32.5 4.06C30.47 4.06 28.53 4.44 26.67 5.22C24.8 5.99 23.15 7.09 21.72 8.52C20.29 9.95 19.19 11.6 18.42 13.46C17.65 15.33 17.26 17.27 17.26 19.29C17.26 21.31 17.65 23.26 18.42 25.12C19.19 26.99 20.29 28.64 21.72 30.06C23.15 31.49 24.8 32.59 26.67 33.37C28.53 34.14 30.47 34.53 32.5 34.53C34.52 34.53 36.46 34.14 38.32 33.37C40.19 32.59 41.84 31.49 43.27 30.06C44.7 28.64 45.8 26.99 46.57 25.12C47.34 23.26 47.73 21.31 47.73 19.29C47.73 17.27 47.34 15.33 46.57 13.46C45.79 11.6 44.69 9.95 43.26 8.52C41.83 7.1 40.19 6 38.32 5.22C36.46 4.45 34.51 4.06 32.5 4.06ZM32.5 30.46C31.01 30.46 29.59 30.18 28.22 29.61C26.85 29.05 25.64 28.24 24.6 27.19C23.55 26.14 22.74 24.94 22.17 23.57C21.61 22.2 21.32 20.77 21.32 19.29C21.32 17.81 21.61 16.39 22.17 15.02C22.74 13.65 23.55 12.44 24.6 11.39C25.64 10.34 26.85 9.54 28.22 8.97C29.59 8.4 31.01 8.12 32.5 8.12C33.98 8.12 35.4 8.4 36.77 8.97C38.14 9.54 39.35 10.34 40.39 11.39C41.44 12.44 42.25 13.65 42.82 15.02C43.38 16.39 43.67 17.81 43.67 19.29C43.67 20.77 43.38 22.2 42.81 23.57C42.25 24.93 41.44 26.14 40.39 27.19C39.34 28.23 38.14 29.04 36.77 29.61C35.4 30.18 33.98 30.46 32.5 30.46Z" fill="#A877FF" fill-opacity="1.000000" fill-rule="nonzero"/>
		<path id="path" d="M10.15 60.93L54.84 60.93C56.19 60.93 56.87 60.26 56.87 58.9L56.87 50.78C56.87 49.16 56.56 47.61 55.94 46.11C55.32 44.62 54.44 43.3 53.3 42.16C52.15 41.02 50.84 40.14 49.34 39.52C47.85 38.9 46.3 38.59 44.68 38.59L20.31 38.59C18.69 38.59 17.14 38.9 15.65 39.52C14.15 40.14 12.84 41.02 11.69 42.16C10.55 43.3 9.67 44.62 9.05 46.11C8.43 47.61 8.12 49.16 8.12 50.78L8.12 58.9C8.12 60.26 8.8 60.93 10.15 60.93ZM12.18 50.78C12.18 48.53 12.98 46.62 14.56 45.03C16.15 43.45 18.06 42.65 20.31 42.65L44.68 42.65C46.93 42.65 48.84 43.45 50.43 45.03C52.01 46.62 52.81 48.53 52.81 50.78L52.81 56.87L12.18 56.87L12.18 50.78Z" fill="#A877FF" fill-opacity="1.000000" fill-rule="nonzero"/>
	</g>
</svg>
