<svg width="50.000000" height="63.235229" viewBox="0 0 50 63.2352" fill="none" xmlns="http://www.w3.org/2000/svg" xmlns:xlink="http://www.w3.org/1999/xlink">
	<desc>
			Created with Pixso.
	</desc>
	<defs/>
	<path id="path" d="M44.18 26.47L41.91 26.47L41.91 17.34C41.91 8.52 35.33 0.86 26.55 0.07C16.53 -0.84 8.08 7.13 8.08 17.04L8.08 26.47L5.81 26.47C2.6 26.47 0 29.07 0 32.28L0 53.19L0 57.41C0 60.63 2.6 63.23 5.81 63.23L44.18 63.23C47.39 63.23 50 60.63 50 57.41L50 53.19L50 32.28C50 29.07 47.39 26.47 44.18 26.47ZM11.76 17.04C11.76 9.26 18.37 3.02 26.21 3.73C33.09 4.35 38.23 10.35 38.23 17.25L38.23 26.47L11.76 26.47L11.76 17.04ZM3.67 32.28C3.67 31.1 4.63 30.14 5.81 30.14L9.83 30.14L40.16 30.14L44.18 30.14C45.36 30.14 46.32 31.1 46.32 32.28L46.32 51.47L3.67 51.47L3.67 32.28ZM44.18 59.55L5.81 59.55C4.63 59.55 3.67 58.59 3.67 57.41L3.67 55.14L46.32 55.14L46.32 57.41C46.32 58.59 45.36 59.55 44.18 59.55Z" fill="#A877FF" fill-opacity="1.000000" fill-rule="nonzero"/>
	<path id="path" d="M11.76 38.97L16.91 38.97L16.91 44.11L11.76 44.11L11.76 38.97Z" fill="#A877FF" fill-opacity="1.000000" fill-rule="nonzero"/>
	<path id="path" d="M22.05 38.97L27.2 38.97L27.2 44.11L22.05 44.11L22.05 38.97Z" fill="#A877FF" fill-opacity="1.000000" fill-rule="nonzero"/>
	<path id="path" d="M33.08 38.97L38.23 38.97L38.23 44.11L33.08 44.11L33.08 38.97Z" fill="#A877FF" fill-opacity="1.000000" fill-rule="nonzero"/>
</svg>
