<svg width="65.000000" height="65.000000" viewBox="0 0 65 65" fill="none" xmlns="http://www.w3.org/2000/svg" xmlns:xlink="http://www.w3.org/1999/xlink">
	<desc>
			Created with Pixso.
	</desc>
	<defs>
		<clipPath id="clip17_17">
			<rect id="password_invisibility" width="65.000000" height="65.000000" fill="white" fill-opacity="0"/>
		</clipPath>
	</defs>
	<g clip-path="url(#clip17_17)">
		<path id="Vector" d="M8.94 12.74L8.91 12.74C7.84 11.67 7.84 9.99 8.91 8.91C9.99 7.84 11.67 7.84 12.74 8.91L12.74 8.94L8.94 12.74ZM56.05 52.25L56.08 52.25C57.15 53.32 57.15 55 56.08 56.08C55 57.15 53.32 57.15 52.25 56.08L52.25 56.05L56.05 52.25ZM43.39 43.02L43.4 42.99C44.73 42.27 46.35 42.76 47.07 44.09C47.79 45.43 47.3 47.04 45.97 47.76L45.94 47.75L43.39 43.02ZM18.06 17.79L18.07 17.76C19.38 17.01 21.01 17.44 21.77 18.76C22.52 20.07 22.09 21.7 20.77 22.46L20.74 22.45L18.06 17.79ZM54.6 41.63L54.6 41.66C53.46 42.66 51.78 42.56 50.77 41.42C49.77 40.28 49.88 38.6 51.02 37.59L51.05 37.6L54.6 41.63ZM30.15 19.08L30.13 19.11C28.63 19.3 27.29 18.27 27.1 16.76C26.91 15.26 27.94 13.93 29.44 13.73L29.47 13.75L30.15 19.08ZM34.28 34.56L34.29 34.53C35.42 33.52 37.1 33.63 38.11 34.77C39.11 35.9 39.01 37.58 37.87 38.59L37.84 38.59L34.28 34.56ZM26.65 26.88L26.65 26.85C27.7 25.76 29.39 25.73 30.48 26.79C31.57 27.84 31.6 29.52 30.55 30.61L30.52 30.62L26.65 26.88Z" fill="#000000" fill-opacity="0" fill-rule="nonzero"/>
		<path id="Vector" d="M10.83 10.83L54.16 54.16M44.68 45.38C41.02 47.35 36.88 48.74 32.49 48.74C22.93 48.74 14.53 42.1 9.71 37.31C8.44 36.05 7.8 35.42 7.4 34.17C7.11 33.29 7.11 31.7 7.4 30.81C7.8 29.57 8.44 28.94 9.71 27.67C12.14 25.26 15.48 22.38 19.42 20.11M52.81 39.63C53.71 38.83 54.54 38.05 55.28 37.32C56.55 36.06 57.19 35.41 57.59 34.18C57.88 33.29 57.88 31.7 57.59 30.82C57.19 29.58 56.55 28.94 55.28 27.68C50.46 22.89 42.06 16.24 32.49 16.24C31.58 16.24 30.68 16.31 29.79 16.42M36.08 36.56C35.12 37.4 33.87 37.91 32.49 37.91C29.5 37.91 27.08 35.49 27.08 32.49C27.08 31.03 27.66 29.71 28.6 28.73" stroke="#D3BBFF" stroke-opacity="1.000000" stroke-width="5.416667" stroke-linejoin="round" stroke-linecap="round"/>
	</g>
</svg>
