<svg width="65.000000" height="65.000000" viewBox="0 0 65 65" fill="none" xmlns="http://www.w3.org/2000/svg" xmlns:xlink="http://www.w3.org/1999/xlink">
	<desc>
			Created with Pixso.
	</desc>
	<defs>
		<clipPath id="clip14_175">
			<rect id="password_generation" width="65.000000" height="65.000000" fill="white" fill-opacity="0"/>
		</clipPath>
	</defs>
	<g clip-path="url(#clip14_175)">
		<path id="path" d="M12.99 23.69C12.62 23.04 11.79 22.82 11.14 23.2L10.83 23.38L10.83 23.02C10.83 22.27 10.22 21.66 9.47 21.66C8.73 21.66 8.12 22.27 8.12 23.02L8.12 23.38L7.81 23.2C7.16 22.83 6.33 23.05 5.96 23.69C5.58 24.34 5.8 25.17 6.45 25.54L6.76 25.72L6.45 25.91C5.8 26.28 5.58 27.11 5.96 27.76C6.2 28.19 6.66 28.43 7.13 28.43C7.36 28.43 7.59 28.37 7.81 28.25L8.12 28.07L8.12 28.43C8.12 29.18 8.73 29.79 9.47 29.79C10.22 29.79 10.83 29.18 10.83 28.43L10.83 28.07L11.14 28.25C11.36 28.37 11.59 28.43 11.82 28.43C12.29 28.43 12.74 28.19 12.99 27.76C13.37 27.11 13.15 26.28 12.5 25.91L12.18 25.72L12.5 25.54C13.15 25.17 13.37 24.34 12.99 23.69Z" fill="#A877FF" fill-opacity="1.000000" fill-rule="nonzero"/>
		<path id="path" d="M23.83 23.69C23.45 23.04 22.62 22.82 21.98 23.2L21.66 23.38L21.66 23.02C21.66 22.27 21.06 21.66 20.31 21.66C19.56 21.66 18.95 22.27 18.95 23.02L18.95 23.38L18.64 23.2C17.99 22.83 17.16 23.05 16.79 23.69C16.41 24.34 16.64 25.17 17.28 25.54L17.6 25.72L17.28 25.91C16.64 26.28 16.41 27.11 16.79 27.76C17.04 28.19 17.5 28.43 17.96 28.43C18.19 28.43 18.42 28.37 18.64 28.25L18.95 28.07L18.95 28.43C18.95 29.18 19.56 29.79 20.31 29.79C21.06 29.79 21.66 29.18 21.66 28.43L21.66 28.07L21.98 28.25C22.19 28.37 22.42 28.43 22.65 28.43C23.12 28.43 23.58 28.19 23.82 27.76C24.2 27.11 23.98 26.28 23.33 25.91L23.02 25.72L23.33 25.54C23.98 25.17 24.2 24.34 23.83 23.69Z" fill="#A877FF" fill-opacity="1.000000" fill-rule="nonzero"/>
		<path id="path" d="M34.66 23.69C34.29 23.04 33.45 22.82 32.81 23.2L32.5 23.38L32.5 23.02C32.5 22.27 31.89 21.66 31.14 21.66C30.39 21.66 29.79 22.27 29.79 23.02L29.79 23.38L29.47 23.2C28.83 22.83 28 23.05 27.62 23.69C27.25 24.34 27.47 25.17 28.12 25.54L28.43 25.72L28.12 25.91C27.47 26.28 27.25 27.11 27.62 27.76C27.87 28.19 28.33 28.43 28.79 28.43C29.02 28.43 29.26 28.37 29.47 28.25L29.79 28.07L29.79 28.43C29.79 29.18 30.39 29.79 31.14 29.79C31.89 29.79 32.49 29.18 32.49 28.43L32.49 28.07L32.81 28.25C33.02 28.37 33.26 28.43 33.49 28.43C33.95 28.43 34.41 28.19 34.66 27.76C35.03 27.11 34.81 26.28 34.16 25.91L33.85 25.72L34.16 25.54C34.81 25.17 35.03 24.34 34.66 23.69Z" fill="#A877FF" fill-opacity="1.000000" fill-rule="nonzero"/>
		<path id="path" d="M59.58 25.08L59.58 18.95C59.58 15.97 57.15 13.54 54.16 13.54L5.41 13.54C2.43 13.54 0 15.97 0 18.95L0 32.5C0 35.48 2.43 37.91 5.41 37.91L35.27 37.91C35.96 45.49 42.34 51.45 50.1 51.45C58.31 51.45 65 44.77 65 36.56C65 31.94 62.88 27.81 59.58 25.08ZM5.41 35.2C3.92 35.2 2.7 33.99 2.7 32.5L2.7 18.95C2.7 17.46 3.92 16.25 5.41 16.25L54.16 16.25C55.66 16.25 56.87 17.46 56.87 18.95L56.87 23.31C54.84 22.26 52.54 21.66 50.1 21.66C47.66 21.66 45.36 22.26 43.33 23.31L43.33 23.02C43.33 22.27 42.72 21.66 41.97 21.66C41.23 21.66 40.62 22.27 40.62 23.02L40.62 23.38L40.31 23.2C39.66 22.83 38.83 23.05 38.46 23.69C38.08 24.34 38.3 25.17 38.95 25.54L39.27 25.72L38.95 25.91C38.4 26.22 38.19 26.86 38.35 27.44C36.65 29.62 35.54 32.29 35.27 35.2L5.41 35.2ZM50.1 48.75C43.38 48.75 37.91 43.28 37.91 36.56C37.91 29.84 43.38 24.37 50.1 24.37C56.82 24.37 62.29 29.84 62.29 36.56C62.29 43.28 56.82 48.75 50.1 48.75Z" fill="#A877FF" fill-opacity="1.000000" fill-rule="nonzero"/>
		<path id="path" d="M55.91 31.54L47.39 40.06L44.29 36.95C43.76 36.43 42.9 36.43 42.37 36.95C41.84 37.48 41.84 38.34 42.37 38.87L46.43 42.93C46.7 43.2 47.04 43.33 47.39 43.33C47.74 43.33 48.08 43.2 48.35 42.93L57.83 33.45C58.36 32.92 58.36 32.07 57.83 31.54C57.3 31.01 56.44 31.01 55.91 31.54Z" fill="#A877FF" fill-opacity="1.000000" fill-rule="nonzero"/>
	</g>
</svg>
