<svg width="65.000000" height="64.998657" viewBox="0 0 65 64.9987" fill="none" xmlns="http://www.w3.org/2000/svg" xmlns:xlink="http://www.w3.org/1999/xlink">
	<desc>
			Created with Pixso.
	</desc>
	<defs/>
	<g style="mix-blend-mode:normal">
		<path id="path" d="M27.06 0C12.15 0 0 12.15 0 27.06C0 41.98 12.15 54.13 27.06 54.13C33.55 54.13 39.51 51.82 44.17 48L60.34 64.16C61.01 64.87 62.02 65.15 62.97 64.91C63.92 64.66 64.66 63.92 64.91 62.97C65.15 62.02 64.87 61.01 64.16 60.33L48 44.17C51.83 39.5 54.13 33.55 54.13 27.06C54.13 12.15 41.98 0 27.06 0ZM27.06 5.41C39.05 5.41 48.72 15.07 48.72 27.06C48.72 39.05 39.05 48.71 27.06 48.71C15.07 48.71 5.41 39.05 5.41 27.06C5.41 15.07 15.07 5.41 27.06 5.41Z" fill="#525266" fill-opacity="1.000000" fill-rule="nonzero"/>
		<path id="path" d="M0 27.06C0 41.98 12.15 54.13 27.06 54.13C33.55 54.13 39.51 51.82 44.17 48L60.34 64.16C61.01 64.87 62.02 65.15 62.97 64.91C63.92 64.66 64.66 63.92 64.91 62.97C65.15 62.02 64.87 61.01 64.16 60.33L48 44.17C51.83 39.5 54.13 33.55 54.13 27.06C54.13 12.15 41.98 0 27.06 0C12.15 0 0 12.15 0 27.06ZM48.72 27.06C48.72 39.05 39.05 48.71 27.06 48.71C15.07 48.71 5.41 39.05 5.41 27.06C5.41 15.07 15.07 5.41 27.06 5.41C39.05 5.41 48.72 15.07 48.72 27.06Z" stroke="#000000" stroke-opacity="0" stroke-width="3.333332"/>
	</g>
</svg>
