<svg width="65.000000" height="65.000000" viewBox="0 0 65 65" fill="none" xmlns="http://www.w3.org/2000/svg" xmlns:xlink="http://www.w3.org/1999/xlink">
	<desc>
			Created with Pixso.
	</desc>
	<defs>
		<clipPath id="clip17_31">
			<rect id="site" width="65.000000" height="65.000000" fill="white" fill-opacity="0"/>
		</clipPath>
	</defs>
	<g clip-path="url(#clip17_31)">
		<path id="path" d="M26.64 49.95C27.11 50.83 27.57 51.62 28.02 52.31C23.28 51.25 19.17 48.52 16.32 44.79C18.2 43.73 20.61 42.63 23.5 41.83C24.32 45.05 25.48 47.78 26.64 49.95ZM30.22 48.04C29.22 46.15 28.2 43.79 27.48 40.99C29.04 40.75 30.72 40.62 32.5 40.62C34.27 40.62 35.95 40.75 37.51 40.99C36.79 43.79 35.77 46.15 34.77 48.04C33.96 49.56 33.15 50.77 32.5 51.66C31.84 50.77 31.03 49.56 30.22 48.04ZM26.4 32.5C26.4 34.08 26.51 35.58 26.7 37C28.51 36.72 30.44 36.56 32.5 36.56C34.55 36.56 36.48 36.72 38.29 37C38.48 35.58 38.59 34.08 38.59 32.5C38.59 30.91 38.48 29.41 38.29 27.99C36.48 28.27 34.55 28.43 32.5 28.43C30.44 28.43 28.51 28.27 26.7 27.99C26.51 29.41 26.4 30.91 26.4 32.5ZM22.71 27.16C22.47 28.83 22.34 30.61 22.34 32.5C22.34 34.38 22.47 36.16 22.71 37.83C19.26 38.76 16.4 40.07 14.2 41.32C12.91 38.65 12.18 35.66 12.18 32.5C12.18 29.33 12.91 26.34 14.2 23.67C16.4 24.92 19.26 26.23 22.71 27.16ZM27.48 24C29.04 24.24 30.72 24.37 32.5 24.37C34.27 24.37 35.95 24.24 37.51 24C36.79 21.2 35.77 18.84 34.77 16.95C33.96 15.43 33.15 14.22 32.5 13.33C31.84 14.22 31.03 15.43 30.22 16.95C29.22 18.84 28.2 21.2 27.48 24ZM42.28 27.16C42.52 28.83 42.65 30.61 42.65 32.5C42.65 34.38 42.52 36.16 42.28 37.83C45.73 38.76 48.59 40.07 50.79 41.32C52.08 38.65 52.81 35.66 52.81 32.5C52.81 29.33 52.08 26.34 50.79 23.67C48.59 24.92 45.73 26.23 42.28 27.16ZM48.67 20.2C46.79 21.26 44.38 22.36 41.49 23.16C40.67 19.94 39.51 17.21 38.35 15.04C37.88 14.16 37.42 13.37 36.97 12.68C41.71 13.74 45.82 16.47 48.67 20.2ZM23.5 23.16C20.61 22.36 18.2 21.26 16.32 20.2C19.17 16.47 23.28 13.74 28.02 12.68C27.57 13.37 27.11 14.16 26.64 15.04C25.48 17.21 24.32 19.94 23.5 23.16ZM41.49 41.83C40.67 45.05 39.51 47.78 38.35 49.95C37.88 50.83 37.42 51.62 36.97 52.31C41.71 51.25 45.82 48.52 48.67 44.79C46.79 43.73 44.38 42.63 41.49 41.83ZM32.5 56.87C45.96 56.87 56.87 45.96 56.87 32.5C56.87 19.03 45.96 8.12 32.5 8.12C19.03 8.12 8.12 19.03 8.12 32.5C8.12 45.96 19.03 56.87 32.5 56.87Z" fill="#A877FF" fill-opacity="1.000000" fill-rule="evenodd"/>
	</g>
</svg>
