<svg width="65.000000" height="65.000000" viewBox="0 0 65 65" fill="none" xmlns="http://www.w3.org/2000/svg" xmlns:xlink="http://www.w3.org/1999/xlink">
	<desc>
			Created with Pixso.
	</desc>
	<defs>
		<clipPath id="clip17_5">
			<rect id="update_generation" width="65.000000" height="65.000000" fill="white" fill-opacity="0"/>
		</clipPath>
	</defs>
	<g clip-path="url(#clip17_5)">
		<path id="path" d="M13.54 32.49C13.54 28.68 14.6 25.19 16.71 22.02C18.82 18.85 21.63 16.52 25.15 15.04C28.66 13.57 32.29 13.18 36.03 13.89C39.78 14.6 43.01 16.29 45.74 18.95L37.91 18.95C36.11 18.95 35.2 19.86 35.2 21.66C35.2 23.47 36.11 24.37 37.91 24.37L51.67 24.37C53.34 24.24 54.17 23.33 54.16 21.66L54.16 8.12C54.16 6.31 53.26 5.41 51.45 5.41C49.65 5.41 48.75 6.31 48.75 8.12L48.75 14.4C45.17 11.2 41.01 9.23 36.27 8.49C31.53 7.75 26.96 8.35 22.58 10.3C18.19 12.26 14.69 15.24 12.07 19.26C9.45 23.29 8.14 27.7 8.12 32.49C8.12 34.3 9.02 35.2 10.83 35.2C12.63 35.2 13.54 34.3 13.54 32.49Z" fill="#A877FF" fill-opacity="1.000000" fill-rule="nonzero"/>
		<path id="path" d="M54.16 29.79C52.36 29.79 51.45 30.69 51.45 32.49C51.45 36.31 50.39 39.8 48.28 42.97C46.17 46.14 43.36 48.47 39.84 49.95C36.33 51.42 32.7 51.81 28.96 51.1C25.21 50.39 21.98 48.7 19.25 46.04L27.08 46.04C28.88 46.04 29.79 45.13 29.79 43.33C29.79 41.52 28.88 40.62 27.08 40.62L13.32 40.62C11.65 40.75 10.82 41.66 10.83 43.33L10.83 56.87C10.83 58.68 11.73 59.58 13.54 59.58C15.34 59.58 16.25 58.68 16.25 56.87L16.25 50.59C19.82 53.79 23.98 55.76 28.72 56.5C33.46 57.24 38.03 56.64 42.41 54.69C46.8 52.73 50.3 49.75 52.92 45.73C55.54 41.7 56.86 37.29 56.87 32.49C56.87 30.69 55.97 29.79 54.16 29.79Z" fill="#A877FF" fill-opacity="1.000000" fill-rule="nonzero"/>
	</g>
</svg>
