<svg width="65.000000" height="65.000000" viewBox="0 0 65 65" fill="none" xmlns="http://www.w3.org/2000/svg" xmlns:xlink="http://www.w3.org/1999/xlink">
	<desc>
			Created with Pixso.
	</desc>
	<defs>
		<clipPath id="clip14_61">
			<rect id="welcome_clap" width="65.000000" height="65.000000" fill="white" fill-opacity="0"/>
		</clipPath>
	</defs>
	<g clip-path="url(#clip14_61)">
		<path id="path" d="M54.61 52.26C53.9 51.48 52.7 51.43 51.92 52.13C51.14 52.84 51.09 54.05 51.79 54.82L55.83 59.25C56.2 59.67 56.72 59.88 57.24 59.88C57.69 59.88 58.15 59.71 58.52 59.38C59.29 58.67 59.35 57.47 58.64 56.69L54.61 52.26Z" fill="#A877FF" fill-opacity="1.000000" fill-rule="nonzero"/>
		<path id="path" d="M63.87 46.9L58.37 44.42C57.41 43.99 56.28 44.42 55.85 45.38C55.42 46.33 55.85 47.46 56.8 47.89L62.31 50.37C62.56 50.49 62.83 50.54 63.09 50.54C63.82 50.54 64.51 50.13 64.83 49.42C65.26 48.46 64.83 47.34 63.87 46.9Z" fill="#A877FF" fill-opacity="1.000000" fill-rule="nonzero"/>
		<path id="path" d="M61.69 24.9C61.1 24.3 60.41 23.86 59.68 23.56C60.82 22.39 61.45 20.86 61.45 19.23C61.45 17.58 60.81 16.03 59.64 14.86C58.96 14.18 58.16 13.7 57.31 13.4C57.74 12.55 57.96 11.61 57.96 10.63C57.96 8.98 57.32 7.43 56.15 6.26C54.62 4.73 52.48 4.17 50.5 4.59C50.26 3.53 49.71 2.55 48.92 1.75C46.59 -0.57 42.81 -0.57 40.49 1.75L29.35 12.87C29.37 12.62 29.38 12.37 29.37 12.13C29.32 8.27 26.64 4.96 22.87 4.1L22.84 4.09C20.75 3.61 18.6 4.84 17.96 6.89C17.42 8.62 16.43 11.73 15.17 15.34C14.25 14.66 13.2 14.18 12.06 13.91C9.93 13.42 7.77 14.68 7.16 16.78C6.43 19.25 3.37 29.31 0.93 37.32C-1.76 46.16 1.5 55.69 9.05 61.03C12.69 63.6 17.03 64.98 21.46 64.98C22.06 64.98 22.66 64.95 23.27 64.9C28.3 64.47 33.05 62.27 36.63 58.7L61.69 33.63C62.86 32.47 63.5 30.91 63.5 29.26C63.5 27.61 62.86 26.06 61.69 24.9ZM56.95 17.56C57.4 18 57.64 18.6 57.64 19.23C57.64 19.86 57.4 20.46 56.94 20.91L53.25 24.62C53.14 24.71 53.04 24.8 52.94 24.9L52.32 25.53C52.02 24.8 51.57 24.12 50.99 23.55C50.39 22.95 49.7 22.5 48.96 22.2L53.69 17.46C54.62 16.64 56.05 16.67 56.95 17.56ZM50.1 8.95C51.03 8.03 52.54 8.03 53.46 8.95C53.91 9.4 54.16 10 54.16 10.63C54.16 11.26 53.91 11.85 53.46 12.3L48.84 16.93C48.53 16.2 48.08 15.52 47.5 14.94C46.9 14.35 46.21 13.9 45.47 13.6L50.1 8.95ZM43.18 4.45C44.02 3.61 45.39 3.61 46.23 4.45C46.63 4.85 46.85 5.38 46.85 5.94C46.85 6.51 46.63 7.05 46.22 7.45C46.21 7.46 46.21 7.46 46.21 7.47L41.55 12.14C41.25 11.48 40.84 10.87 40.31 10.35C39.77 9.81 39.16 9.4 38.5 9.11L43.18 4.45ZM21.6 8.03C21.65 7.86 21.82 7.76 21.99 7.8L22.02 7.81C24.08 8.28 25.54 10.08 25.57 12.19C25.57 12.63 25.49 13.12 25.33 13.63L23.69 18.53L18.38 23.83C18.74 22.16 18.58 20.46 17.94 18.91C19.61 14.29 20.93 10.14 21.6 8.03ZM50.35 39.62L33.93 56.01C30.99 58.95 27.09 60.76 22.94 61.11C18.8 61.46 14.65 60.33 11.25 57.93C5.04 53.53 2.36 45.7 4.57 38.43C7.01 30.41 10.08 20.34 10.81 17.86C10.86 17.69 11.03 17.59 11.21 17.63C12.4 17.9 13.41 18.62 14.06 19.66C14.71 20.69 14.91 21.92 14.64 23.1L13.17 29.43C12.98 30.26 13.36 31.12 14.1 31.53C14.84 31.94 15.77 31.81 16.37 31.21L34.57 13.04C35.41 12.2 36.78 12.2 37.62 13.04C38.03 13.45 38.25 13.99 38.25 14.56C38.25 15.13 38.03 15.67 37.62 16.08L26.71 26.97C25.96 27.72 25.96 28.92 26.71 29.66C27.45 30.41 28.66 30.41 29.4 29.67L40.31 18.77L41.45 17.64C42.38 16.71 43.88 16.71 44.81 17.64C45.26 18.09 45.5 18.68 45.5 19.31C45.5 19.89 45.3 20.43 44.92 20.86L32.76 33.01C31.15 34.74 33.42 37.46 35.45 35.71L44.94 26.24C45.86 25.32 47.37 25.32 48.3 26.24C48.74 26.69 48.99 27.28 48.99 27.91C48.99 28.55 48.74 29.14 48.3 29.59L34.37 43.49C32.91 44.9 34.77 48.08 37.06 46.18L46.99 36.27C47.92 35.35 49.42 35.35 50.35 36.27C50.8 36.72 51.04 37.32 51.04 37.95C51.04 38.58 50.8 39.17 50.35 39.62ZM59 30.94L54.38 35.57C54.07 34.84 53.62 34.16 53.04 33.58C52.45 32.99 51.76 32.54 51.03 32.24L55.84 27.42C56.77 26.67 58.14 26.73 59 27.59C59.45 28.04 59.7 28.63 59.7 29.26C59.7 29.9 59.45 30.49 59 30.94Z" fill="#A877FF" fill-opacity="1.000000" fill-rule="nonzero"/>
	</g>
</svg>
